<svg xmlns="http://www.w3.org/2000/svg" viewBox="0 -688 2875 1137" role="img" aria-label="DPI · Productos Individuales">
<title>DPI · Productos Individuales</title>
<rect x="400" y="70" width="2475" height="90" fill="#181613"/>
<circle cx="400" cy="-240" r="400" fill="#a9cc8f"/>
<path fill="#181613" d="M890 0V-688H1290Q1418 -688 1511 -648Q1604 -608 1654 -531Q1704 -454 1704 -344Q1704 -234 1654 -157Q1604 -80 1511 -40Q1418 0 1290 0ZM1137 -171H1275Q1316 -171 1348 -183Q1380 -195 1403 -216Q1426 -238 1438 -268Q1450 -297 1450 -333V-357Q1450 -393 1438 -422Q1426 -451 1403 -472Q1380 -494 1348 -506Q1316 -517 1275 -517H1137Z M1793 0V-688H2346Q2414 -688 2466 -658Q2518 -627 2547 -572Q2576 -518 2576 -447Q2576 -374 2546 -319Q2517 -264 2465 -234Q2413 -204 2346 -204H2040V0ZM2040 -375H2277Q2315 -375 2334 -393Q2352 -411 2352 -446Q2352 -470 2344 -486Q2335 -501 2318 -509Q2302 -517 2277 -517H2040Z M2628 0V-688H2875V0Z"/>
<path fill="#181613" d="M14 447V255H76Q95 255 106 262Q117 270 122 284Q126 297 126 315Q126 334 121 349Q116 363 105 371Q94 380 76 380H50V447ZM50 348H69Q80 348 85 340Q90 331 90 317Q90 306 87 299Q85 292 80 289Q76 286 67 286H50Z M155 447V255H216Q237 255 248 262Q260 270 264 282Q269 295 269 311Q269 329 264 343Q260 357 249 364L276 447H238L216 376H191V447ZM191 346H210Q223 346 228 337Q232 329 232 314Q232 304 230 298Q228 292 223 289Q218 286 209 286H191Z M364 450Q342 450 328 440Q313 430 306 408Q298 386 298 351Q298 316 306 294Q313 272 328 262Q342 251 364 251Q386 251 401 262Q415 272 422 294Q430 316 430 351Q430 386 422 408Q415 430 401 440Q386 450 364 450ZM364 419Q372 419 377 416Q383 412 386 405Q390 398 391 388Q392 378 392 364V337Q392 324 391 314Q390 304 386 297Q383 290 377 286Q372 283 364 283Q356 283 351 286Q346 290 342 297Q339 304 337 314Q336 324 336 337V364Q336 378 337 388Q339 398 342 405Q346 412 351 416Q356 419 364 419Z M464 447V255H520Q542 255 556 265Q569 275 575 296Q581 317 581 350Q581 384 575 405Q569 426 555 437Q541 447 519 447ZM501 416H515Q522 416 528 413Q533 411 536 405Q540 399 542 389Q543 379 543 364V341Q543 326 542 315Q540 305 537 298Q533 292 528 289Q522 286 515 286H501Z M670 450Q652 450 640 445Q627 439 620 424Q614 410 614 385V255H650V388Q650 404 654 411Q659 419 670 419Q680 419 685 411Q689 404 689 388V255H726V385Q726 410 719 424Q712 439 700 445Q687 450 670 450Z M821 450Q798 450 784 440Q771 429 765 407Q759 385 759 351Q759 300 775 275Q790 251 825 251Q844 251 856 259Q868 267 875 284Q881 301 881 329H846Q846 314 844 304Q842 293 837 288Q832 283 823 283Q814 283 808 289Q802 294 799 306Q796 319 796 338V365Q796 384 799 396Q801 408 807 413Q813 419 822 419Q831 419 836 414Q842 409 844 399Q847 388 847 373H881Q881 401 874 418Q867 435 854 442Q840 450 821 450Z M945 447V286H904V255H1022V286H982V447Z M1112 450Q1090 450 1075 440Q1061 430 1053 408Q1046 386 1046 351Q1046 316 1053 294Q1061 272 1075 262Q1090 251 1112 251Q1134 251 1148 262Q1163 272 1170 294Q1177 316 1177 351Q1177 386 1170 408Q1163 430 1148 440Q1134 450 1112 450ZM1112 419Q1119 419 1125 416Q1130 412 1134 405Q1137 398 1138 388Q1140 378 1140 364V337Q1140 324 1138 314Q1137 304 1134 297Q1130 290 1125 286Q1119 283 1112 283Q1104 283 1098 286Q1093 290 1090 297Q1086 304 1085 314Q1083 324 1083 337V364Q1083 378 1085 388Q1086 398 1090 405Q1093 412 1098 416Q1104 419 1112 419Z M1261 450Q1249 450 1239 448Q1228 445 1221 439Q1213 432 1209 421Q1205 410 1205 392Q1205 390 1205 389Q1205 387 1205 386H1240Q1240 388 1240 389Q1240 390 1240 392Q1240 402 1242 408Q1244 414 1249 417Q1253 419 1260 419Q1264 419 1267 418Q1270 417 1272 415Q1274 413 1276 410Q1278 408 1278 404Q1279 400 1279 394Q1279 387 1276 382Q1273 377 1268 373Q1263 370 1256 367Q1250 364 1243 361Q1236 358 1230 353Q1224 349 1219 343Q1213 337 1210 328Q1207 320 1207 307Q1207 292 1212 282Q1216 271 1224 264Q1231 258 1241 254Q1250 251 1261 251Q1272 251 1282 254Q1292 257 1298 263Q1305 269 1309 279Q1313 289 1313 304V310H1278V306Q1278 299 1277 294Q1275 288 1272 286Q1268 283 1261 283Q1256 283 1253 285Q1249 287 1247 291Q1244 296 1244 303Q1244 311 1248 316Q1251 321 1256 325Q1261 328 1267 331Q1274 334 1280 337Q1287 340 1294 345Q1300 349 1305 355Q1310 361 1313 370Q1316 378 1316 390Q1316 411 1310 424Q1303 438 1290 444Q1278 450 1261 450Z M1392 447V255H1429V447Z M1468 447V255H1503L1538 346Q1539 349 1540 352Q1542 355 1543 359Q1544 362 1544 366H1546Q1546 360 1546 355Q1546 350 1546 346V255H1580V447H1546L1510 354Q1509 351 1507 345Q1505 340 1504 333H1502Q1502 338 1502 344Q1502 350 1502 354V447Z M1620 447V255H1675Q1698 255 1711 265Q1724 275 1730 296Q1736 317 1736 350Q1736 384 1730 405Q1724 426 1711 437Q1697 447 1674 447ZM1656 416H1671Q1678 416 1683 413Q1689 411 1692 405Q1696 399 1697 389Q1699 379 1699 364V341Q1699 326 1697 315Q1696 305 1692 298Q1689 292 1683 289Q1678 286 1671 286H1656Z M1771 447V255H1807V447Z M1872 447 1835 255H1873L1890 360Q1891 365 1892 373Q1893 381 1894 390Q1895 398 1896 404H1898Q1898 401 1899 394Q1900 388 1901 379Q1903 370 1904 360L1921 255H1958L1921 447Z M1986 447V255H2023V447Z M2062 447V255H2117Q2140 255 2153 265Q2166 275 2172 296Q2178 317 2178 350Q2178 384 2172 405Q2166 426 2152 437Q2139 447 2116 447ZM2098 416H2113Q2120 416 2125 413Q2130 411 2134 405Q2138 399 2139 389Q2141 379 2141 364V341Q2141 326 2139 315Q2138 305 2134 298Q2131 292 2125 289Q2120 286 2113 286H2098Z M2267 450Q2250 450 2237 445Q2225 439 2218 424Q2211 410 2211 385V255H2248V388Q2248 404 2252 411Q2256 419 2267 419Q2278 419 2282 411Q2287 404 2287 388V255H2323V385Q2323 410 2317 424Q2310 439 2297 445Q2285 450 2267 450Z M2347 447 2390 255H2438L2481 447H2443L2434 406H2392L2384 447ZM2397 375H2430L2419 318Q2419 316 2418 313Q2418 310 2417 305Q2416 301 2416 297Q2415 293 2414 290H2413Q2412 294 2411 299Q2410 305 2410 310Q2409 315 2408 318Z M2506 447V255H2543V415H2600V447Z M2629 447V255H2732V286H2665V333H2722V365H2665V416H2733V447Z M2814 450Q2802 450 2792 448Q2782 445 2774 439Q2767 432 2762 421Q2758 410 2758 392Q2758 390 2758 389Q2758 387 2758 386H2793Q2793 388 2793 389Q2793 390 2793 392Q2793 402 2795 408Q2798 414 2802 417Q2806 419 2813 419Q2817 419 2820 418Q2823 417 2825 415Q2828 413 2829 410Q2831 408 2832 404Q2832 400 2832 394Q2832 387 2829 382Q2826 377 2821 373Q2816 370 2810 367Q2803 364 2796 361Q2790 358 2783 353Q2777 349 2772 343Q2767 337 2764 328Q2761 320 2761 307Q2761 292 2765 282Q2769 271 2777 264Q2784 258 2794 254Q2804 251 2814 251Q2826 251 2835 254Q2845 257 2852 263Q2858 269 2862 279Q2866 289 2866 304V310H2832V306Q2832 299 2830 294Q2828 288 2825 286Q2821 283 2815 283Q2810 283 2806 285Q2802 287 2800 291Q2798 296 2798 303Q2798 311 2801 316Q2804 321 2809 325Q2814 328 2820 331Q2827 334 2834 337Q2840 340 2847 345Q2853 349 2858 355Q2864 361 2866 370Q2870 378 2870 390Q2870 411 2863 424Q2856 438 2843 444Q2831 450 2814 450Z"/>
</svg>
